<?xml version="1.0" standalone="no"?>
<!DOCTYPE svg PUBLIC "-//W3C//DTD SVG 20010904//EN"
 "http://www.w3.org/TR/2001/REC-SVG-20010904/DTD/svg10.dtd">
<svg version="1.0" xmlns="http://www.w3.org/2000/svg"
 width="225.000000pt" height="225.000000pt" viewBox="0 0 225.000000 225.000000"
 preserveAspectRatio="xMidYMid meet">
<metadata>
Created by potrace 1.14, written by Peter Selinger 2001-2017
</metadata>
<g transform="translate(0.000000,225.000000) scale(0.100000,-0.100000)"
fill="#000000" stroke="none">
<path d="M825 2070 c-28 -7 -28 -8 -5 -9 20 -2 16 -5 -20 -18 -31 -11 -49 -12
-61 -5 -12 8 -27 4 -60 -15 -74 -43 -80 -51 -72 -96 4 -29 3 -38 -5 -33 -8 5
-10 1 -6 -9 4 -9 12 -14 20 -11 7 3 14 1 16 -4 2 -5 17 -12 33 -16 17 -4 27
-3 23 1 -4 4 7 15 24 25 18 9 37 25 42 35 21 37 54 64 95 77 23 8 39 17 36 20
-3 3 10 4 30 2 23 -1 33 1 28 9 -4 7 0 8 11 4 13 -5 17 -3 13 7 -5 11 1 12 28
5 37 -11 56 -9 68 6 6 6 10 6 14 -2 2 -7 14 -13 26 -13 56 0 116 -69 79 -89
-14 -8 -12 -11 11 -16 16 -4 33 -3 38 2 15 15 -16 81 -43 92 -142 57 -159 61
-246 60 -48 -1 -100 -5 -117 -9z m-122 -99 c-19 -23 -39 -29 -27 -8 5 8 2 7
-9 -2 -10 -8 -20 -11 -23 -8 -3 3 12 17 33 31 41 28 55 21 26 -13z"/>
<path d="M613 1853 c-7 -3 -13 -13 -13 -23 0 -22 34 -20 38 3 4 18 -7 26 -25
20z"/>
<path d="M1395 1793 c5 -10 13 -37 19 -61 7 -23 14 -41 17 -38 2 2 3 -53 2
-122 -1 -115 0 -124 13 -97 15 33 18 198 3 189 -5 -3 -6 2 -3 10 3 9 3 24 -1
34 -5 9 -9 23 -11 31 -6 30 -27 71 -36 71 -6 0 -7 -8 -3 -17z"/>
<path d="M545 1785 c-16 -7 -24 -14 -16 -14 11 -1 11 -5 -1 -23 -8 -13 -20
-40 -27 -60 -11 -32 -10 -41 4 -60 17 -23 17 -23 11 10 -5 29 -4 31 8 19 11
-10 12 -24 6 -51 -12 -55 15 -151 47 -163 10 -3 26 -14 36 -25 17 -17 17 -18
-18 -18 -19 0 -35 5 -35 10 0 6 8 10 18 10 15 1 14 2 -3 12 -11 6 -25 19 -32
27 -11 14 -12 13 -13 -6 0 -13 5 -23 10 -23 6 0 10 -8 8 -17 -2 -13 5 -19 22
-22 23 -3 24 -4 5 -12 -14 -7 -8 -8 23 -5 23 2 40 0 36 -5 -3 -5 -23 -9 -45
-9 l-41 0 8 -32 c4 -18 6 -46 5 -62 -2 -30 13 -47 64 -72 17 -8 37 -18 45 -23
8 -5 36 -19 62 -30 25 -11 49 -25 53 -31 3 -5 26 -15 50 -21 25 -6 50 -18 56
-25 10 -12 6 -14 -22 -12 -28 3 -36 -2 -53 -29 -15 -23 -29 -32 -48 -33 -17 0
-35 -11 -52 -31 -14 -17 -30 -27 -36 -24 -6 4 -10 -5 -10 -19 0 -14 4 -26 8
-26 4 0 8 -9 8 -21 0 -18 -2 -18 -12 -5 -6 9 -13 13 -16 10 -3 -2 -13 11 -22
31 -10 20 -24 39 -32 42 -12 5 -11 9 6 28 19 20 19 23 5 29 -9 3 -30 6 -45 6
-16 0 -32 5 -35 10 -3 6 -1 10 5 10 7 0 10 7 6 15 -3 8 2 21 10 30 20 19 21
73 2 112 -9 19 -22 29 -42 31 -20 3 -26 0 -21 -8 6 -9 2 -9 -13 -1 -32 17 -37
14 -51 -36 -8 -27 -16 -53 -18 -60 -3 -6 5 -13 17 -15 11 -2 19 -7 18 -13 -2
-5 -5 -9 -8 -8 -3 1 -13 5 -22 8 -15 6 -18 1 -18 -34 0 -50 22 -97 50 -106 11
-3 20 -14 20 -23 1 -9 23 -41 50 -70 47 -50 51 -53 87 -46 21 4 49 12 63 19
14 7 36 18 50 24 14 6 35 18 48 27 21 16 22 16 22 -12 0 -21 14 -43 47 -78 25
-26 52 -49 60 -50 7 -1 13 -5 13 -9 0 -4 0 -11 0 -16 0 -5 -13 -11 -29 -14
-18 -4 -32 -14 -36 -27 -8 -25 15 -90 32 -90 7 0 13 -5 13 -11 0 -5 -4 -7 -10
-4 -6 4 -10 -10 -10 -34 0 -29 -4 -41 -14 -41 -12 0 -56 -93 -56 -119 0 -5 -7
-14 -15 -21 -10 -8 -15 -30 -15 -61 0 -50 -21 -76 -53 -64 -7 3 -19 -1 -26 -9
-10 -12 -6 -16 21 -24 115 -36 162 -45 232 -45 65 -1 81 3 92 17 12 17 19 18
93 6 96 -16 174 -6 179 23 3 16 1 17 -16 8 -12 -6 -41 -11 -65 -11 -36 0 -46
4 -50 20 -7 28 18 50 58 50 18 0 40 3 49 6 19 7 21 52 4 89 -10 23 -16 25 -78
25 l-67 0 5 54 c4 53 -9 79 -29 59 -15 -15 -51 -143 -56 -198 -3 -27 -9 -54
-13 -59 -14 -14 -41 14 -39 38 2 12 -1 35 -4 51 l-7 30 -66 -3 c-41 -2 -70 1
-79 8 -18 15 -21 75 -3 64 8 -5 9 -2 5 9 -3 10 -2 17 3 17 6 0 10 7 10 16 0 8
5 12 11 9 6 -4 13 2 16 14 4 15 13 21 33 21 27 0 28 1 19 32 -5 18 -9 43 -9
56 l0 23 29 -22 c23 -17 37 -20 69 -14 22 3 48 16 59 27 l18 21 -32 -17 c-40
-20 -53 -21 -27 -1 18 14 17 15 -8 4 -29 -13 -44 -4 -67 39 -13 24 -10 26 40
22 14 0 44 5 68 13 l42 15 -2 -42 c-2 -51 25 -176 33 -154 8 19 50 28 75 16
17 -9 17 -8 1 5 -10 8 -18 21 -18 30 0 9 -4 19 -10 22 -5 3 -10 1 -10 -5 0 -6
-5 -8 -11 -5 -6 4 -8 10 -5 13 3 3 2 10 -3 16 -15 18 -24 83 -12 90 6 4 13 -9
17 -31 11 -61 26 -75 19 -18 -8 59 -19 75 -53 75 -13 0 -31 8 -38 18 -20 25
-17 34 7 22 11 -7 23 -9 26 -7 8 9 -54 37 -82 37 -30 0 -61 -14 -92 -42 -25
-23 -66 -16 -60 10 2 10 9 16 16 14 7 -1 10 1 7 6 -2 4 -1 14 4 22 4 7 5 20 1
29 -5 9 -16 32 -25 51 -22 46 -13 72 23 68 19 -2 26 1 26 15 0 10 7 22 15 27
25 16 82 12 96 -7 10 -14 17 -16 31 -7 27 17 33 64 10 96 -19 29 -16 48 8 48
22 0 96 80 88 93 -5 8 -9 6 -11 -6 -2 -9 -8 -15 -13 -11 -5 3 -16 -1 -23 -9
-23 -22 -110 -29 -152 -11 -20 8 -42 13 -50 10 -7 -3 -20 1 -28 9 -8 8 -22 15
-31 15 -9 0 -24 7 -33 16 -11 12 -17 13 -20 5 -3 -9 -8 -9 -19 0 -12 10 -17
10 -24 -2 -8 -10 -8 -8 -4 10 5 16 4 21 -4 17 -17 -11 -51 13 -51 36 0 17 -2
18 -15 8 -13 -10 -15 -9 -15 9 0 12 -6 21 -15 21 -8 0 -15 9 -15 20 0 10 -8
24 -17 29 -17 10 -16 10 2 11 16 1 14 4 -7 12 -49 17 -30 26 45 21 99 -6 288
7 262 18 -13 6 1 8 43 6 34 -2 57 0 50 4 -7 4 0 9 18 12 19 2 11 5 -22 6 -27
0 -55 6 -60 11 -10 10 -5 68 11 140 9 40 6 73 -8 82 -6 4 -7 8 -2 8 6 0 2 7
-9 15 -17 13 -17 14 10 22 16 4 72 7 124 8 l95 0 -4 -30 c-2 -16 -4 -75 -5
-129 -1 -89 -3 -100 -21 -107 -12 -4 1 -6 35 -5 57 3 162 42 145 54 -6 4 -10
39 -10 77 0 39 -4 81 -9 95 -8 23 -8 24 10 10 18 -14 18 -14 1 7 -27 31 -90
45 -228 48 -150 3 -279 -9 -385 -36 -85 -22 -194 -33 -194 -19 0 5 6 11 13 13
10 4 10 6 0 6 -18 1 -16 21 2 21 15 0 21 25 8 33 -5 3 -21 -1 -38 -8z m703
-95 c-7 -10 -14 -17 -17 -15 -4 4 18 35 25 35 2 0 -1 -9 -8 -20z m79 -5 c0
-10 -6 -14 -14 -10 -8 3 -18 5 -21 6 -4 0 2 4 13 9 11 5 20 9 21 9 0 1 1 -6 1
-14z m-9 -51 c4 -29 -28 -41 -45 -18 -10 13 -10 21 -1 31 16 19 42 12 46 -13z
m-623 -64 c0 -16 -6 -26 -18 -28 -19 -4 -32 20 -23 44 9 25 41 13 41 -16z
m563 -6 c-4 -3 -12 5 -18 18 -12 22 -12 22 6 6 10 -10 15 -20 12 -24z m67 26
c-3 -5 -14 -10 -23 -10 -15 0 -15 2 -2 10 20 13 33 13 25 0z m-818 -416 c-3
-3 -12 -4 -19 -1 -8 3 -5 6 6 6 11 1 17 -2 13 -5z m-7 -44 c0 -11 -7 -20 -15
-20 -15 0 -21 21 -8 33 12 13 23 7 23 -13z m555 10 c3 -5 1 -10 -4 -10 -6 0
-11 5 -11 10 0 6 2 10 4 10 3 0 8 -4 11 -10z m85 6 c0 -2 -7 -7 -16 -10 -8 -3
-12 -2 -9 4 6 10 25 14 25 6z m-635 -146 c21 -41 19 -47 -10 -20 -25 24 -33
50 -15 50 5 0 16 -13 25 -30z m109 -82 c18 -25 20 -56 6 -78 -8 -12 -11 -12
-27 3 -16 14 -31 19 -72 26 -8 1 62 71 70 71 5 0 15 -10 23 -22z m37 -81 c-13
-13 -26 -3 -16 12 3 6 11 8 17 5 6 -4 6 -10 -1 -17z m249 -82 c0 -8 -2 -15 -4
-15 -2 0 -6 7 -10 15 -3 8 -1 15 4 15 6 0 10 -7 10 -15z m160 -5 c0 -5 -2 -10
-4 -10 -3 0 -8 5 -11 10 -3 6 -1 10 4 10 6 0 11 -4 11 -10z m-138 -125 c2 -21
0 -34 -6 -32 -11 4 -26 63 -18 71 10 11 20 -5 24 -39z m318 -296 c0 -5 -9 -9
-20 -9 -22 0 -27 16 -7 23 15 5 27 -1 27 -14z m-280 -29 c0 -5 -7 -10 -15 -10
-8 0 -15 5 -15 10 0 6 7 10 15 10 8 0 15 -4 15 -10z m306 -15 c18 -13 16 -14
-28 -15 -25 0 -55 -3 -65 -7 -13 -4 -12 -1 6 15 28 26 59 28 87 7z m-282 -11
c28 -11 17 -19 -21 -17 -21 1 -50 -4 -65 -12 -23 -11 -26 -11 -20 4 3 9 10 19
16 23 13 9 68 10 90 2z m21 -38 c46 -20 48 -51 4 -60 -49 -10 -99 -7 -99 5 0
6 -6 9 -13 6 -23 -8 -17 30 6 41 51 25 59 25 102 8z"/>
<path d="M421 1711 c-10 -6 -14 -34 -14 -103 0 -133 30 -258 63 -258 25 0 33
42 19 108 -6 32 -8 81 -4 115 4 38 3 57 -4 53 -10 -6 -15 5 -26 62 -7 34 -12
37 -34 23z"/>
<path d="M1138 1473 c6 -2 18 -2 25 0 6 3 1 5 -13 5 -14 0 -19 -2 -12 -5z"/>
<path d="M501 1454 c0 -11 3 -14 6 -6 3 7 2 16 -1 19 -3 4 -6 -2 -5 -13z"/>
<path d="M530 1380 c0 -5 5 -10 11 -10 5 0 7 5 4 10 -3 6 -8 10 -11 10 -2 0
-4 -4 -4 -10z"/>
<path d="M1410 1280 c-10 -6 -11 -10 -2 -10 6 0 12 -5 12 -11 0 -6 -9 -8 -20
-4 -15 5 -18 3 -14 -9 3 -9 -2 -23 -11 -32 -9 -9 -24 -28 -32 -41 -14 -21 -14
-26 -2 -34 8 -5 20 -7 27 -4 6 2 12 1 12 -4 0 -13 -23 -29 -53 -36 -17 -5 -32
-17 -37 -31 -11 -29 -15 -29 -47 -4 -31 24 -51 25 -74 4 -17 -16 -17 -18 2
-55 10 -22 23 -39 27 -39 5 0 35 -16 67 -35 60 -37 123 -45 132 -18 3 7 -4 10
-19 6 -19 -4 -20 -3 -8 7 12 9 10 10 -12 6 -22 -5 -26 -3 -22 9 4 8 11 15 18
15 6 0 4 5 -4 10 -11 7 -2 8 28 4 41 -6 45 -5 78 32 60 65 78 116 52 142 -9 9
-9 12 0 12 7 0 12 9 12 20 0 11 -5 20 -11 20 -5 0 -7 5 -4 10 3 6 0 10 -7 10
-9 0 -10 3 -2 8 20 13 -3 55 -26 49 -11 -3 -20 -1 -20 4 0 12 -21 11 -40 -1z
m75 -80 c11 -17 -5 -32 -21 -19 -7 6 -11 15 -8 20 7 12 21 11 29 -1z m-30 -35
c0 -5 -10 -11 -22 -13 -16 -2 -23 2 -23 13 0 11 7 15 23 13 12 -2 22 -7 22
-13z m34 -87 c-8 -13 -13 -26 -14 -30 0 -4 -6 -13 -12 -19 -18 -18 -29 -2 -15
21 7 12 8 20 2 20 -20 0 -9 19 18 32 32 16 38 8 21 -24z m-254 -28 c3 -5 1
-10 -4 -10 -6 0 -11 5 -11 10 0 6 2 10 4 10 3 0 8 -4 11 -10z"/>
<path d="M1130 1190 c0 -5 5 -10 10 -10 6 0 10 5 10 10 0 6 -4 10 -10 10 -5 0
-10 -4 -10 -10z"/>
<path d="M1164 875 c-9 -48 0 -54 20 -14 20 40 20 49 1 49 -8 0 -17 -14 -21
-35z"/>
<path d="M1048 823 c7 -3 16 -2 19 1 4 3 -2 6 -13 5 -11 0 -14 -3 -6 -6z"/>
<path d="M968 813 c7 -3 16 -2 19 1 4 3 -2 6 -13 5 -11 0 -14 -3 -6 -6z"/>
</g>
</svg>
